<?xml version="1.0" encoding="UTF-8" standalone="no" ?>
<!DOCTYPE svg PUBLIC "-//W3C//DTD SVG 1.1//EN" "http://www.w3.org/Graphics/SVG/1.1/DTD/svg11.dtd">
<svg xmlns="http://www.w3.org/2000/svg" xmlns:xlink="http://www.w3.org/1999/xlink" version="1.1" width="1500" height="400" viewBox="0 0 1500 400" xml:space="preserve">
<desc>Created with Fabric.js 4.6.0</desc>
<defs>
</defs>
<g transform="matrix(1 0 0 1.1 751.67 200)" id="9tQ6FLj9w1m2SdbNybYRI"  >
<path style="stroke: rgb(21,230,177); stroke-width: 0; stroke-dasharray: none; stroke-linecap: butt; stroke-dashoffset: 0; stroke-linejoin: miter; stroke-miterlimit: 4; fill: rgb(0,0,0); fill-rule: nonzero; opacity: 0.8;" vector-effect="non-scaling-stroke"  transform=" translate(0, 0)" d="M -750.00001 -137.60747 C -750.00001 -145.31444000000002 -746.64758 -152.70576 -740.6802 -158.15541000000002 C -734.71283 -163.60506 -726.61934 -166.66665 -718.1802 -166.66665 L 718.1802 -166.66665 L 718.1802 -166.66665 C 726.61934 -166.66665 734.71283 -163.60507 740.6802 -158.15541000000002 C 746.64757 -152.70576000000003 750.00001 -145.31444000000002 750 -137.60747 L 750 137.60745999999997 L 750 137.60745999999997 C 750 153.65639999999996 735.75379 166.66663999999997 718.1802 166.66663999999997 L -718.1802 166.66663999999997 L -718.1802 166.66663999999997 C -735.75379 166.66663999999997 -750 153.65639999999996 -750.00001 137.60745999999997 z" stroke-linecap="round" />
</g>
<g transform="matrix(0.54 0 0 0.54 224.58 185.5)" id="jT11Z8vplNPEmWQI1yuTb"  >
<filter id="SVGID_3" y="-21%" height="142%" x="-21%" width="142%" >
	<feGaussianBlur in="SourceAlpha" stdDeviation="0"></feGaussianBlur>
	<feOffset dx="4" dy="4" result="oBlur" ></feOffset>
	<feFlood flood-color="rgb(0,0,0)" flood-opacity="1"/>
	<feComposite in2="oBlur" operator="in" />
	<feMerge>
		<feMergeNode></feMergeNode>
		<feMergeNode in="SourceGraphic"></feMergeNode>
	</feMerge>
</filter>
<path style="stroke: none; stroke-width: 1; stroke-dasharray: none; stroke-linecap: butt; stroke-dashoffset: 0; stroke-linejoin: miter; stroke-miterlimit: 4; fill: rgb(244,39,157); fill-rule: nonzero; opacity: 1;filter: url(#SVGID_3);" vector-effect="non-scaling-stroke"  transform=" translate(-300, -300)" d="M 600 191.174 C 599.875 191.173 599.85 189.976 599.738 188.1 C 599.5600000000001 186.226 599.3580000000001 183.67 599.1500000000001 180.938 C 598.839 178.21599999999998 598.3740000000001 175.333 598.0260000000001 172.762 C 597.562 170.211 597.0450000000001 167.997 596.7550000000001 166.576 C 596.7720000000002 163.982 596.44 161.446 596.2310000000001 158.852 C 595.3830000000002 155.588 594.7760000000001 154.269 594.5750000000002 153.827 C 594.3550000000001 153.391 594.4290000000002 153.869 594.5040000000001 154.34799999999998 C 594.6510000000002 155.30599999999998 594.8060000000002 156.25599999999997 592.6160000000001 149.964 C 592.253 148.837 591.719 147.572 591.1160000000001 146.16 C 590.5230000000001 144.745 589.868 143.18099999999998 589.1590000000001 141.49 C 588.4110000000001 139.81900000000002 587.5030000000002 138.074 586.6010000000001 136.20700000000002 C 586.1350000000001 135.28100000000003 585.6940000000001 134.312 585.1760000000002 133.35600000000002 C 584.6400000000002 132.41100000000003 584.0920000000002 131.44600000000003 583.5340000000001 130.46300000000002 C 582.8250000000002 129.19200000000004 582.0620000000001 127.90300000000002 581.2770000000002 126.60900000000002 C 580.8590000000002 125.33300000000003 580.4550000000002 124.04700000000003 580.0060000000002 122.77900000000002 L 578.3480000000002 118.68500000000003 C 571.8300000000002 105.30400000000003 563.4360000000001 93.77600000000004 553.6140000000001 84.21600000000004 C 543.7850000000002 74.66300000000004 532.6360000000002 66.94400000000005 520.3780000000002 61.253000000000036 C 518.8420000000002 60.55000000000003 517.3040000000002 59.84700000000004 515.7640000000001 59.143000000000036 C 514.1710000000002 58.558000000000035 512.5760000000001 57.973000000000035 510.9760000000001 57.38600000000004 L 508.5750000000001 56.51300000000004 C 507.7690000000001 56.225000000000044 506.9960000000001 55.91800000000004 506.0990000000001 55.68200000000004 C 504.3630000000001 55.18100000000004 502.6240000000001 54.65200000000004 500.8590000000001 54.29500000000004 C 493.8180000000001 52.68500000000004 486.6290000000001 52.06600000000004 479.4830000000001 52.223000000000035 C 465.1500000000001 52.494000000000035 450.9780000000001 55.49900000000004 436.47500000000014 59.768000000000036 C 436.1610000000001 59.55900000000003 438.5360000000001 58.583000000000034 442.5740000000001 57.28300000000004 C 446.6080000000001 55.97700000000004 452.35200000000015 54.427000000000035 458.7810000000001 53.18800000000004 C 465.20600000000013 51.94700000000004 472.35700000000014 51.12300000000004 478.98200000000014 51.003000000000036 C 485.6030000000001 50.84900000000003 491.67200000000014 51.47400000000003 495.7450000000001 52.17600000000004 C 490.68400000000014 51.03800000000004 484.9860000000001 50.45900000000004 479.0200000000001 50.48900000000004 C 473.05000000000007 50.51100000000004 466.8170000000001 51.12700000000004 460.5520000000001 52.17600000000004 C 448.0030000000001 54.27000000000004 435.3640000000001 58.058000000000035 423.42100000000005 61.84600000000004 C 412.40100000000007 65.60000000000004 403.19500000000005 69.63700000000004 397.14400000000006 72.48000000000005 C 391.09900000000005 75.34100000000005 388.1910000000001 77.04800000000004 389.9580000000001 76.64200000000005 C 383.5830000000001 79.46400000000006 379.2940000000001 81.31400000000005 376.3470000000001 82.50400000000005 C 373.4690000000001 83.63300000000005 371.6300000000001 84.41400000000004 370.6660000000001 84.70900000000005 C 368.6860000000001 85.34800000000004 369.6450000000001 84.55400000000004 367.8540000000001 85.26700000000005 C 365.7120000000001 86.48900000000005 362.1840000000001 88.71700000000006 357.6290000000001 91.32900000000005 C 355.4340000000001 92.74100000000006 353.0110000000001 94.30000000000005 350.4270000000001 95.96200000000005 C 347.9260000000001 97.71400000000004 345.2730000000001 99.57800000000005 342.5570000000001 101.53100000000005 C 331.8180000000001 109.49000000000005 320.8280000000001 119.61000000000004 312.9200000000001 127.97800000000005 L 311.6770000000001 128.24300000000005 C 303.5340000000001 137.08100000000005 295.96100000000007 146.26400000000007 288.68500000000006 155.55800000000005 C 294.53900000000004 148.58200000000005 289.8310000000001 155.28500000000005 290.1790000000001 155.55400000000006 C 288.2260000000001 157.86400000000006 286.3110000000001 160.19100000000006 284.4100000000001 162.52500000000006 C 290.1830000000001 156.11100000000008 296.1670000000001 149.12100000000007 302.50700000000006 141.98800000000006 C 308.8500000000001 134.86200000000005 315.46900000000005 127.52500000000006 322.64500000000004 120.56900000000006 C 329.80800000000005 113.61300000000006 337.458 106.98100000000007 345.56600000000003 101.22500000000005 C 347.627 99.82500000000005 349.63500000000005 98.39000000000006 351.72 97.08100000000005 C 353.843 95.82600000000005 355.949 94.58100000000005 358.035 93.34900000000005 C 362.346 91.09600000000005 366.59200000000004 88.92300000000004 370.98400000000004 87.32800000000005 C 365.87000000000006 89.82800000000005 366.83000000000004 89.56700000000005 367.76800000000003 89.30900000000004 C 368.23900000000003 89.18100000000004 368.706 89.05400000000004 368.418 89.27200000000003 C 368.274 89.38100000000003 367.94100000000003 89.57600000000004 367.326 89.90000000000003 C 366.713 90.22800000000004 365.85900000000004 90.75700000000003 364.62600000000003 91.45000000000003 C 362.552 92.54100000000003 360.891 93.41400000000003 359.55400000000003 94.11800000000004 C 358.252 94.87200000000004 357.26500000000004 95.44400000000003 356.504 95.88500000000003 C 354.97200000000004 96.75000000000003 354.31600000000003 97.04600000000003 353.831 97.18500000000003 C 353.266 97.60600000000004 352.583 98.11500000000004 351.85200000000003 98.65900000000003 C 351.14500000000004 99.22700000000003 350.39000000000004 99.83300000000004 349.656 100.42300000000003 C 348.186 101.59700000000004 346.8 102.70000000000003 346.05 103.34000000000003 C 345.29900000000004 103.98000000000003 345.184 104.15500000000003 346.255 103.47400000000003 C 346.792 103.13400000000003 347.624 102.57900000000004 348.824 101.76100000000004 C 349.423 101.35000000000004 350.11400000000003 100.87600000000003 350.90700000000004 100.33200000000004 C 351.69300000000004 99.77700000000003 352.59000000000003 99.16500000000003 353.64300000000003 98.53600000000003 C 353.653 98.76100000000002 353.112 99.24000000000002 352.187 100.02500000000003 C 351.271 100.82100000000004 349.937 101.87900000000003 348.26800000000003 103.14700000000003 C 347.432 103.77700000000003 346.51700000000005 104.46600000000004 345.53200000000004 105.20800000000003 C 344.576 105.98000000000003 343.552 106.80700000000003 342.47 107.68100000000003 C 341.38300000000004 108.54700000000003 340.23900000000003 109.45900000000003 339.045 110.41000000000003 C 337.891 111.40100000000002 336.688 112.43100000000003 335.447 113.49500000000002 C 334.218 114.56800000000001 332.908 115.63200000000002 331.64300000000003 116.79200000000002 C 330.38000000000005 117.95500000000001 329.091 119.14400000000002 327.78200000000004 120.35000000000002 C 327.12800000000004 120.95300000000002 326.46900000000005 121.55900000000003 325.80500000000006 122.16900000000003 C 325.16300000000007 122.79900000000002 324.51900000000006 123.43200000000003 323.87100000000004 124.06800000000003 C 322.76700000000005 125.15500000000003 321.653 126.25200000000002 320.53900000000004 127.34800000000003 C 319.97200000000004 127.82400000000003 319.40400000000005 128.29900000000004 318.831 128.77300000000002 C 318.00600000000003 129.46300000000002 317.17900000000003 130.15600000000003 316.34700000000004 130.85200000000003 C 315.51800000000003 131.55100000000004 314.73400000000004 132.30700000000004 313.91900000000004 133.03900000000004 C 312.90500000000003 133.97000000000006 311.87000000000006 134.92000000000004 310.84200000000004 135.86500000000004 C 311.46600000000007 135.14700000000005 312.09700000000004 134.42100000000005 312.73800000000006 133.68300000000005 C 314.54900000000004 131.70800000000006 316.40100000000007 129.68700000000004 318.16900000000004 127.75900000000004 C 321.807 123.98100000000004 325.08700000000005 120.54200000000004 327.04800000000006 118.60200000000005 C 326.12200000000007 119.46400000000004 325.20700000000005 120.30100000000004 324.33400000000006 121.15800000000004 C 323.47900000000004 122.03000000000004 322.63200000000006 122.89300000000004 321.78200000000004 123.76000000000005 C 320.095 125.50200000000005 318.36800000000005 127.22800000000005 316.64500000000004 129.13600000000005 C 313.526 132.48000000000005 310.095 136.15700000000004 305.872 140.68400000000005 C 305.373 141.19000000000005 304.874 141.69500000000005 304.368 142.20500000000004 C 304.854 141.12700000000004 305.327 140.03800000000004 305.836 138.96900000000005 C 299.861 145.85200000000006 296.67 149.89400000000006 294.986 152.08200000000005 C 293.602 153.88900000000004 293.299 154.45200000000006 293.478 154.42700000000005 C 292.23 155.97300000000004 290.986 157.55200000000005 289.75 159.19600000000005 C 284.595 165.62900000000005 281.114 170.42300000000006 278.372 174.13900000000007 C 276.015 177.35700000000006 274.22900000000004 179.79500000000007 272.64 181.96500000000006 C 272.594 182.02000000000007 272.546 182.07700000000006 272.5 182.13200000000006 C 271.746 183.06500000000005 270.941 183.94500000000005 270.179 184.80500000000006 C 268.832 184.80200000000008 267.37899999999996 183.89000000000007 266.727 183.42400000000006 C 267.428 182.56800000000007 268.11999999999995 181.71500000000006 268.78 180.87200000000007 C 269.246 180.27700000000007 269.66099999999994 179.69300000000007 270.097 179.11500000000007 C 270.53999999999996 178.51200000000006 270.97799999999995 177.91800000000006 271.40799999999996 177.33400000000006 C 272.31399999999996 176.07000000000005 273.18699999999995 174.85400000000007 274.00699999999995 173.71100000000007 C 275.63599999999997 171.41000000000008 277.05199999999996 169.41000000000008 278.09299999999996 167.94000000000008 C 276.56999999999994 169.90300000000008 275.06499999999994 171.84200000000007 273.58399999999995 173.7510000000001 C 272.84499999999997 174.7030000000001 272.11099999999993 175.64700000000008 271.38499999999993 176.5810000000001 C 271.0299999999999 177.0320000000001 270.63899999999995 177.5490000000001 270.3179999999999 177.9380000000001 C 269.9869999999999 178.3440000000001 269.65899999999993 178.7470000000001 269.33199999999994 179.1480000000001 C 268.18199999999996 180.5460000000001 266.97799999999995 181.9220000000001 265.7559999999999 183.2780000000001 C 265.2369999999999 182.7080000000001 264.7179999999999 182.13800000000012 264.1809999999999 181.5970000000001 C 263.5009999999999 180.89800000000008 262.78899999999993 180.1430000000001 262.1339999999999 179.49300000000008 L 260.1579999999999 177.52800000000008 C 257.5129999999999 174.91400000000007 254.8519999999999 172.30900000000008 252.1409999999999 169.7390000000001 C 246.73899999999992 164.5870000000001 241.17899999999992 159.55200000000008 235.4449999999999 154.6790000000001 C 238.5629999999999 157.6630000000001 241.5809999999999 160.7220000000001 244.5699999999999 163.79700000000008 C 232.6689999999999 152.4480000000001 221.8419999999999 144.1020000000001 210.97699999999992 137.2040000000001 C 205.53899999999993 133.7580000000001 200.08499999999992 130.6750000000001 194.39599999999993 127.84900000000009 C 188.70499999999993 125.0290000000001 182.77799999999993 122.4570000000001 176.32699999999994 120.18500000000009 C 178.26599999999993 120.32200000000009 184.61799999999994 122.38700000000009 192.13899999999995 126.02400000000009 C 199.67599999999996 129.62900000000008 208.28499999999997 134.8220000000001 215.58599999999996 139.7330000000001 C 212.35799999999995 137.01000000000008 210.07999999999996 135.3420000000001 208.17399999999995 134.0920000000001 C 206.25899999999996 132.8490000000001 204.72299999999996 132.0090000000001 202.83999999999995 131.0650000000001 C 200.97199999999995 130.1010000000001 198.76199999999994 129.02500000000012 195.45699999999994 127.37500000000011 C 192.15599999999995 125.72000000000011 187.72999999999993 123.51700000000011 181.17299999999994 120.70400000000011 C 177.69199999999995 119.0840000000001 176.83899999999994 118.5040000000001 178.72299999999996 118.85700000000011 C 175.11599999999996 117.60100000000011 171.39799999999997 116.58800000000011 167.66499999999996 115.67800000000011 C 165.76899999999998 115.2960000000001 163.91099999999997 114.8230000000001 161.99199999999996 114.53800000000011 L 159.13599999999997 114.0610000000001 L 156.27599999999995 113.71100000000011 C 155.07199999999995 113.44000000000011 153.87199999999996 113.19100000000012 152.67499999999995 112.96800000000012 L 152.81699999999995 112.90400000000012 C 152.53899999999996 112.88300000000012 152.27899999999994 112.86100000000012 152.01099999999994 112.83900000000013 C 149.84199999999993 112.45000000000013 147.68399999999994 112.13700000000013 145.54199999999994 111.90100000000012 C 141.33199999999994 111.41900000000012 137.17499999999995 111.29600000000012 133.09499999999994 111.35200000000012 C 131.78699999999995 111.39900000000011 130.48799999999994 111.46800000000012 129.19499999999994 111.55100000000012 C 128.13399999999993 111.46400000000011 127.07199999999993 111.37600000000012 126.01899999999993 111.28900000000012 C 124.41499999999994 111.24600000000011 122.82399999999994 111.20300000000012 121.25499999999994 111.16100000000012 C 118.11799999999994 111.00700000000012 115.07699999999994 111.20400000000012 112.20899999999995 111.28500000000011 C 106.47999999999995 111.59400000000011 101.46699999999994 112.19100000000012 97.84199999999994 112.94000000000011 C 96.45899999999995 113.10300000000011 95.11599999999994 113.19400000000012 93.75499999999994 113.36300000000011 C 92.38299999999994 113.54500000000012 91.02499999999993 113.72500000000011 89.66499999999994 113.90500000000011 C 86.96399999999994 114.36300000000011 84.24499999999993 114.82500000000012 81.46899999999994 115.55100000000012 C 75.91999999999993 116.96700000000011 70.00499999999994 119.11100000000012 63.53199999999994 123.02800000000012 L 65.43999999999994 120.49200000000012 C 69.74299999999994 118.38900000000012 73.29199999999994 116.94300000000011 76.22199999999994 115.92600000000012 C 77.69599999999994 115.43700000000011 78.98199999999994 114.96900000000012 80.15499999999994 114.63500000000012 C 81.33199999999995 114.31400000000012 82.36199999999994 114.03300000000011 83.27599999999994 113.78300000000011 C 85.10099999999994 113.27900000000011 86.51199999999994 113.07700000000011 87.66499999999994 112.83500000000012 C 88.82099999999994 112.59900000000012 89.76099999999994 112.47100000000012 90.71999999999994 112.36200000000012 C 91.67399999999994 112.23500000000013 92.64299999999994 112.10500000000012 93.87399999999994 111.94000000000013 C 95.07199999999993 111.81100000000012 96.52499999999993 111.65400000000012 98.47299999999994 111.44400000000013 C 99.44399999999995 111.32700000000013 100.53799999999994 111.19600000000013 101.78599999999994 111.04700000000012 C 103.03599999999994 110.91400000000013 104.44899999999994 110.84000000000013 106.04199999999994 110.70900000000013 C 107.63799999999995 110.61300000000013 109.40899999999995 110.38900000000014 111.41099999999994 110.34800000000013 C 113.41299999999994 110.29200000000013 115.63099999999994 110.23000000000013 118.09399999999994 110.16100000000013 C 116.27699999999994 110.07700000000013 114.24999999999994 110.00600000000013 112.03299999999993 109.94700000000013 C 111.47899999999993 109.93300000000013 110.91199999999994 109.92000000000013 110.33499999999994 109.90500000000013 C 109.75899999999994 109.92200000000012 109.17199999999994 109.93900000000014 108.57399999999994 109.95600000000013 C 107.37699999999994 109.99900000000014 106.13599999999994 110.04300000000013 104.85299999999994 110.09000000000013 C 102.27799999999993 110.13100000000013 99.56899999999993 110.45200000000013 96.70199999999994 110.73000000000013 C 95.26699999999994 110.87700000000014 93.81299999999995 110.99500000000013 92.24899999999994 111.27300000000014 C 90.70599999999993 111.52900000000014 89.10999999999994 111.73100000000014 87.52199999999993 112.10800000000013 C 74.71499999999993 114.69100000000013 60.52699999999993 120.75000000000013 47.80599999999993 130.12300000000013 C 41.442999999999934 134.79700000000014 35.40499999999993 140.22000000000014 29.932999999999932 146.21400000000014 C 24.494999999999933 152.23900000000015 19.61799999999993 158.82200000000014 15.473999999999933 165.73300000000015 C 7.225999999999933 179.57500000000016 2.054999999999932 194.79600000000013 0.5039999999999321 208.86300000000014 C 0.39199999999993207 210.29000000000013 0.24899999999993205 211.74100000000016 0.15699999999993208 213.22300000000016 C 0.10499999999993209 214.70900000000015 0.05199999999993209 216.22200000000015 -0.0020000000000679197 217.75700000000015 C 0.01899999999993208 219.29600000000013 0.04199999999993208 220.85900000000015 0.06399999999993208 222.44300000000015 C 0.14399999999993207 224.00400000000016 0.2929999999999321 225.55600000000015 0.4059999999999321 227.14100000000016 C 0.5279999999999321 228.72200000000015 0.6519999999999321 230.32100000000017 0.7769999999999321 231.93500000000017 C 1.0089999999999322 233.52600000000018 1.243999999999932 235.13300000000018 1.480999999999932 236.75200000000018 C 1.7319999999999318 238.3670000000002 1.923999999999932 240.01200000000017 2.230999999999932 241.63400000000019 C 2.569999999999932 243.24700000000018 2.910999999999932 244.87100000000018 3.253999999999932 246.50100000000018 C 3.290999999999932 246.67300000000017 3.335999999999932 246.84400000000016 3.372999999999932 247.01700000000017 C 3.4139999999999318 247.79800000000017 3.459999999999932 248.58100000000016 3.5109999999999317 249.37200000000016 C 3.630999999999932 250.63200000000015 3.7529999999999317 251.90700000000015 3.875999999999932 253.19400000000016 C 4.081999999999932 254.47400000000016 4.289999999999932 255.76600000000016 4.499999999999932 257.0690000000002 C 4.719999999999931 258.3700000000002 4.941999999999932 259.6810000000002 5.165999999999932 261.0020000000002 C 5.382999999999932 262.3240000000002 5.789999999999932 263.5980000000002 6.099999999999932 264.9080000000002 C 6.771999999999932 267.5130000000002 7.397999999999932 270.16600000000017 8.344999999999931 272.6960000000002 C 11.726999999999931 283.0040000000002 16.62499999999993 292.7060000000002 21.61199999999993 301.2680000000002 C 26.586999999999932 309.8680000000002 31.71599999999993 317.3050000000002 35.67199999999993 323.5630000000002 C 37.728999999999935 326.3980000000002 39.63999999999993 328.93000000000023 41.42899999999993 331.2380000000002 L 40.23399999999993 329.9050000000002 C 43.25899999999993 335.0450000000002 46.35199999999993 340.1280000000002 49.46599999999993 345.1760000000002 L 54.15299999999993 352.7250000000002 C 55.723999999999926 355.2340000000002 57.24999999999993 357.7250000000002 58.95699999999993 360.2840000000002 C 65.54699999999993 370.5050000000002 72.80999999999993 380.2730000000002 80.69599999999993 389.4690000000002 C 101.04999999999993 412.68700000000024 124.92599999999993 432.9280000000002 148.79099999999994 449.6830000000002 C 154.75999999999993 453.8760000000002 160.74799999999993 457.83100000000024 166.67299999999994 461.6010000000002 C 169.63699999999994 463.48300000000023 172.61499999999995 465.2680000000002 175.53499999999994 467.0680000000002 C 178.40799999999993 468.80500000000023 181.24499999999995 470.5210000000002 184.04499999999993 472.2130000000002 C 195.20199999999994 479.0100000000002 205.67399999999992 485.59400000000016 215.33299999999994 491.6290000000002 L 225.37699999999995 499.1520000000002 C 235.52499999999995 505.2150000000002 248.94299999999996 513.9160000000002 263.88699999999994 523.7000000000002 C 271.37899999999996 528.5800000000002 279.25499999999994 533.7100000000002 287.2699999999999 538.9300000000002 C 288.2759999999999 539.5790000000002 289.28399999999993 540.2300000000001 290.29299999999995 540.8810000000002 C 290.768 541.2000000000002 291.35799999999995 541.5440000000002 291.94399999999996 541.8850000000002 L 293.68999999999994 542.9030000000002 C 294.2749999999999 543.2380000000003 294.85299999999995 543.5840000000003 295.4459999999999 543.9080000000002 L 297.2989999999999 544.7720000000003 C 298.54599999999994 545.3270000000002 299.74499999999995 545.9720000000003 301.0659999999999 546.3820000000003 C 302.3689999999999 546.8210000000003 303.6439999999999 547.3360000000002 304.9729999999999 547.6940000000003 L 308.9909999999999 548.6720000000003 L 313.07599999999985 549.2620000000003 C 314.4379999999999 549.4270000000002 315.80999999999983 549.4260000000003 317.17299999999983 549.5050000000003 C 322.6299999999998 549.6080000000003 327.96599999999984 548.7910000000003 332.94399999999985 547.4110000000003 C 334.17399999999986 547.0310000000003 335.43599999999986 546.7230000000003 336.62199999999984 546.2790000000003 C 337.81099999999986 545.8400000000004 338.99499999999983 545.4030000000004 340.17299999999983 544.9670000000003 C 342.45799999999986 543.9760000000003 344.72999999999985 543.0070000000003 346.8539999999998 541.8690000000004 C 351.1469999999998 539.6650000000004 355.12499999999983 537.2210000000003 358.7719999999998 534.6470000000004 C 362.4549999999998 532.1100000000004 365.81699999999984 529.4500000000004 368.9459999999998 526.8300000000004 C 371.4529999999998 524.7150000000004 373.7889999999998 522.6190000000004 375.9779999999998 520.5690000000004 L 375.9699999999998 520.5820000000004 C 375.9699999999998 520.5820000000004 387.1239999999998 512.1810000000005 389.0619999999998 510.80600000000044 C 390.9999999999998 509.4310000000004 400.0619999999998 499.55600000000044 402.5619999999998 496.49300000000045 C 403.93999999999977 494.80500000000046 404.8019999999998 492.79900000000043 405.3019999999998 491.33400000000046 C 406.7409999999998 490.0930000000005 408.1709999999998 488.84800000000047 409.58199999999977 487.59200000000044 C 409.0159999999998 488.23400000000044 408.53899999999976 488.78600000000046 408.20199999999977 489.2060000000004 C 406.7349999999998 490.9990000000004 407.5499999999998 490.4970000000004 412.5879999999998 485.75100000000043 C 414.7709999999998 483.4630000000004 416.6249999999998 481.4490000000004 418.1719999999998 479.7230000000004 C 424.3949999999998 473.76300000000043 429.8909999999998 467.43100000000044 434.8879999999998 461.0840000000004 C 438.3689999999998 456.6850000000004 441.6569999999998 452.2900000000004 444.8609999999998 447.9760000000004 C 449.0939999999998 443.0700000000004 453.1909999999998 438.3530000000004 456.9239999999998 434.1850000000004 C 460.8779999999998 429.7690000000004 464.3879999999998 425.8510000000004 467.1399999999998 422.7780000000004 C 475.3089999999998 411.7960000000004 480.9359999999998 404.0690000000004 485.6739999999998 397.2430000000004 C 487.8309999999998 394.1610000000004 489.7949999999998 391.25600000000037 491.69699999999983 388.3030000000004 C 491.8729999999998 388.0410000000004 492.0509999999998 387.7780000000004 492.21999999999986 387.5220000000004 C 496.1179999999999 381.7090000000004 498.78799999999984 377.4130000000004 497.6159999999999 378.5650000000004 C 497.9209999999999 378.0350000000004 498.2229999999999 377.5130000000004 498.53199999999987 376.9660000000004 C 497.99599999999987 377.7610000000004 497.4979999999999 378.5060000000004 497.02999999999986 379.2140000000004 C 496.89799999999985 379.36900000000037 496.7599999999999 379.5330000000004 496.59599999999983 379.7350000000004 C 493.74499999999983 383.7490000000004 491.6709999999998 386.4130000000004 490.18499999999983 388.1320000000004 C 490.23499999999984 388.0540000000004 490.2839999999998 387.9750000000004 490.33299999999986 387.8970000000004 C 497.87599999999986 377.1060000000004 504.53599999999983 367.36200000000036 510.52599999999984 358.4090000000004 C 511.03599999999983 357.64800000000037 511.5339999999998 356.8990000000004 512.0329999999998 356.1500000000004 C 513.0629999999998 355.19600000000037 514.0619999999998 354.2550000000004 514.9649999999998 353.3820000000004 C 512.9619999999998 356.7550000000004 510.3179999999998 361.0140000000004 507.9369999999998 364.7950000000004 C 504.3979999999998 370.4750000000004 501.4489999999998 375.0640000000004 502.56299999999976 374.1410000000004 C 507.0599999999998 366.41900000000044 511.3939999999998 359.7230000000004 516.0449999999997 352.3240000000004 C 516.7159999999998 351.6550000000004 517.3019999999997 351.04900000000043 517.7649999999998 350.5360000000004 C 517.7649999999998 350.5360000000004 517.7659999999997 350.5350000000004 517.7669999999997 350.5340000000004 C 514.3679999999997 355.7150000000004 510.8009999999997 361.1810000000004 511.3199999999997 361.5260000000004 C 520.3829999999997 347.9210000000004 529.7199999999997 334.3830000000004 538.8999999999997 320.6650000000004 C 547.0779999999997 309.3620000000004 554.8609999999998 297.7010000000004 562.0709999999998 286.1630000000004 C 569.2889999999998 274.6270000000004 575.9149999999998 263.2140000000004 581.9749999999998 252.4710000000004 C 579.3709999999998 257.3120000000004 579.1059999999998 258.1790000000004 578.4529999999997 259.8870000000004 C 577.7779999999998 261.5790000000004 576.6479999999998 264.0810000000004 571.7869999999997 271.8240000000004 C 573.1229999999997 269.38800000000043 572.1039999999997 270.9450000000004 573.4269999999997 268.5230000000004 C 568.1379999999997 277.5860000000004 564.5839999999997 283.20500000000044 562.1549999999996 287.2010000000004 C 559.7129999999996 291.1870000000004 558.3049999999996 293.4850000000004 557.0239999999997 295.7010000000004 C 554.6459999999996 299.67400000000043 552.6239999999997 303.35400000000044 544.5099999999996 315.4420000000004 C 548.2949999999996 309.81600000000043 552.2799999999996 303.8090000000004 556.3189999999996 297.5690000000004 C 561.2949999999996 289.8140000000004 566.3519999999996 281.7190000000004 571.1469999999996 273.56800000000044 C 575.9049999999996 265.39200000000045 580.4859999999996 257.22600000000045 584.5159999999996 249.35100000000045 C 585.5619999999997 247.40600000000046 586.4979999999996 245.43500000000046 587.4559999999997 243.52400000000046 C 587.9319999999997 242.56600000000046 588.4029999999997 241.61800000000045 588.8689999999997 240.67900000000046 C 589.3339999999997 239.73200000000045 589.8089999999997 238.84600000000046 590.2339999999997 237.82300000000046 C 591.1029999999997 235.83900000000045 591.9529999999997 233.90200000000047 592.7789999999997 232.01600000000047 C 592.9849999999997 231.54400000000047 593.1889999999996 231.07600000000048 593.3929999999997 230.61100000000047 C 593.5639999999997 230.13200000000046 593.7329999999997 229.65700000000047 593.9009999999997 229.18500000000049 C 594.2349999999997 228.2410000000005 594.5639999999997 227.31000000000049 594.8879999999997 226.3950000000005 C 594.0959999999997 227.9240000000005 594.1869999999997 227.1870000000005 594.7949999999997 225.1040000000005 C 594.9519999999998 224.5850000000005 595.1359999999997 223.9790000000005 595.3419999999998 223.3020000000005 C 595.5579999999998 222.6280000000005 595.7979999999998 221.8830000000005 595.9759999999998 221.05500000000052 C 596.3809999999997 219.4160000000005 596.8439999999998 217.5420000000005 597.3349999999998 215.55100000000053 C 599.1579999999998 207.55900000000054 600.2819999999998 197.43800000000053 599.8489999999998 193.10400000000053 L 600 191.174 z M 558.471 123.845 C 558.537 123.984 558.61 124.131 558.683 124.278 C 558.444 123.902 558.389 123.777 558.471 123.845 z M 277.967 210.293 C 278.003 210.404 278.046 210.511 278.08099999999996 210.62300000000002 C 278.68899999999996 212.30100000000002 279.032 214.092 279.43299999999994 215.85500000000002 C 279.62899999999996 216.73800000000003 279.68999999999994 217.66100000000003 279.81999999999994 218.56400000000002 C 279.92799999999994 219.472 280.0709999999999 220.37500000000003 280.05499999999995 221.30100000000002 L 280.102 224.06400000000002 C 280.09299999999996 224.985 279.962 225.90400000000002 279.89 226.824 C 279.827 228.10000000000002 279.575 229.34400000000002 279.30699999999996 230.585 C 279.143 230.151 278.91499999999996 229.645 278.67699999999996 229.149 C 279.26199999999994 225.45 279.24299999999994 221.814 278.81399999999996 218.67000000000002 C 278.59599999999995 216.53400000000002 278.05699999999996 214.65800000000002 277.64799999999997 212.991 C 277.477 212.441 277.306 211.929 277.13699999999994 211.437 C 277.414 211.063 277.69 210.675 277.967 210.293 z M 274.643 245.677 C 274.753 245.357 274.85699999999997 245.025 274.95599999999996 244.684 C 275.37699999999995 243.924 275.79099999999994 243.173 276.12499999999994 242.552 C 276.74899999999997 241.394 277.73199999999997 238.662 278.48199999999997 236.147 C 278.59299999999996 235.94899999999998 278.794 235.47 279.12899999999996 234.563 C 279.29499999999996 234.069 279.554 233.476 279.74999999999994 232.706 C 279.92499999999995 231.928 280.13199999999995 231.00699999999998 280.37499999999994 229.926 C 280.65899999999993 228.851 280.74899999999997 227.57199999999997 280.8929999999999 226.11499999999998 C 281.0949999999999 224.658 281.0309999999999 223.01399999999998 280.99099999999993 221.16799999999998 C 281.05499999999995 222.027 281.12299999999993 222.94499999999996 281.19499999999994 223.91599999999997 C 281.2679999999999 224.88999999999996 281.15299999999996 225.92099999999996 281.1209999999999 227.00499999999997 C 281.09099999999995 227.54699999999997 281.0589999999999 228.10199999999998 281.0279999999999 228.66799999999998 C 280.9629999999999 229.22899999999998 280.8539999999999 229.795 280.7609999999999 230.37699999999998 C 280.6599999999999 230.95799999999997 280.5569999999999 231.54899999999998 280.4519999999999 232.15099999999998 C 280.35199999999986 232.75599999999997 280.2359999999999 233.367 280.0399999999999 233.95999999999998 C 279.68799999999993 235.16099999999997 279.3209999999999 236.40499999999997 278.9149999999999 237.66899999999998 C 278.39699999999993 238.87499999999997 277.86599999999993 240.10999999999999 277.3239999999999 241.373 C 277.0779999999999 241.988 276.6899999999999 242.671 276.3249999999999 243.34199999999998 C 275.9539999999999 244.00599999999997 275.55899999999986 244.61399999999998 275.1629999999999 245.24999999999997 C 274.9169999999999 245.61699999999996 274.6599999999999 245.97399999999996 274.4059999999999 246.33299999999997 C 274.482 246.112 274.569 245.908 274.643 245.677 z M 259.227 176.681 C 260.655 178.113 262.214 179.64200000000002 263.87899999999996 181.393 C 264.52099999999996 182.041 265.12999999999994 182.69 265.717 183.323 C 265.659 183.387 265.602 183.453 265.544 183.517 C 265.113 183.05599999999998 264.68399999999997 182.605 264.258 182.164 C 263.383 181.28099999999998 262.49199999999996 180.34599999999998 261.709 179.589 C 260.915 178.812 260.151 178.064 259.422 177.349 C 257.952 175.929 256.62300000000005 174.64499999999998 255.47800000000004 173.539 C 254.393 172.022 256.399 173.878 259.227 176.681 z M 245.319 167.618 C 248.24599999999998 170.213 251.37699999999998 173.046 254.256 175.704 C 257.156 178.37800000000001 259.836 180.84900000000002 261.847 182.704 C 262.64799999999997 183.525 263.38899999999995 184.31300000000002 264.10299999999995 185.08700000000002 C 263.6209999999999 185.608 263.14099999999996 186.126 262.65799999999996 186.63700000000003 C 262.015 185.92200000000003 261.376 185.22700000000003 260.74799999999993 184.58900000000003 C 259.90399999999994 183.70700000000002 259.10499999999996 182.86800000000002 258.38899999999995 182.15600000000003 C 256.95099999999996 180.69800000000004 255.77099999999996 179.49800000000005 255.01899999999995 178.70000000000005 C 253.78899999999996 177.38800000000003 253.72699999999995 177.15000000000003 255.55599999999995 178.63400000000004 C 253.74499999999995 177.02100000000004 250.75099999999995 174.15300000000005 247.37299999999996 170.95700000000005 C 242.77499999999995 166.58600000000004 237.44999999999996 161.64000000000004 233.76399999999995 158.23200000000006 C 234.317 158.294 239.449 162.439 245.319 167.618 z M 233.835 163.541 C 237.49800000000002 166.75 240.686 169.623 243.791 172.464 C 246.49699999999999 174.936 249.141 177.408 251.927 180.089 C 247.94799999999998 176.513 244.296 173.568 240.34199999999998 170.492 C 236.33599999999998 166.28199999999998 232.171 162.255 227.88299999999998 158.385 C 230.023 160.211 231.988 161.922 233.835 163.541 z M 248.205 209.834 C 247.919 210.199 247.633 210.566 247.34300000000002 210.943 C 244.489 214.69600000000003 241.25000000000003 218.931 238.03500000000003 224.947 C 235.717 228.497 233.92600000000002 232.738 232.70100000000002 237.126 C 232.91600000000003 236.025 233.25000000000003 234.951 233.58200000000002 233.904 C 233.74500000000003 233.382 233.90500000000003 232.86599999999999 234.06400000000002 232.357 L 234.30200000000002 231.599 L 234.597 230.893 C 234.989 229.959 235.37 229.048 235.743 228.159 C 236.095 227.25199999999998 236.573 226.486 236.965 225.67399999999998 C 237.381 224.88299999999998 237.76 224.08499999999998 238.177 223.35399999999998 C 238.60399999999998 222.634 239.022 221.933 239.42999999999998 221.24699999999999 C 240.21999999999997 219.84699999999998 241.06399999999996 218.62199999999999 241.84699999999998 217.42399999999998 C 244.01699999999997 214.19199999999998 245.98 211.462 247.808 209.02399999999997 C 247.92 209.24899999999997 248.031 209.47299999999998 248.137 209.69099999999997 C 248.162 209.74 248.182 209.785 248.205 209.834 z M 178.932 121.471 C 181.29 122.423 182.099 122.99600000000001 183.176 123.617 C 184.244 124.253 185.53 125.031 188.70999999999998 126.632 C 189.50199999999998 127.037 190.408 127.501 191.45499999999998 128.036 C 192.49399999999997 128.582 193.672 129.202 195.015 129.90800000000002 C 196.362 130.60700000000003 197.833 131.45100000000002 199.51899999999998 132.359 C 201.16799999999998 133.31900000000002 203.03999999999996 134.335 205.05299999999997 135.567 C 208.17499999999995 137.985 211.82399999999996 141.00400000000002 215.24599999999998 143.99 C 218.67799999999997 146.96800000000002 221.81799999999998 149.989 224.06799999999998 152.28300000000002 C 226.29 154.61100000000002 227.62199999999999 156.21200000000002 227.34799999999998 156.473 C 227.11599999999999 156.69500000000002 225.71599999999998 155.89000000000001 222.654 153.78500000000003 C 219.006 150.65900000000002 215.29399999999998 147.62000000000003 211.525 144.67300000000003 C 205.06 139.43300000000002 202.35500000000002 137.30100000000004 200.91500000000002 135.96600000000004 C 199.46800000000002 134.64100000000005 199.15900000000002 134.15300000000005 197.32800000000003 132.54200000000003 C 190.61300000000003 127.73800000000003 183.80000000000004 123.82800000000003 176.98500000000004 120.72200000000004 C 177.73 121 178.371 121.256 178.932 121.471 z M 39.543 167.288 C 40.119 166.47 40.807 165.729 41.46 164.929 C 42.806 163.366 44.168 161.69 45.794 160.05700000000002 C 47.458 158.46200000000002 49.276999999999994 156.80400000000003 51.31399999999999 155.06900000000002 L 49.91 154.82000000000002 C 51.581999999999994 153.14800000000002 53.22 151.76800000000003 54.638999999999996 150.43000000000004 C 55.358 149.76900000000003 56.04 149.14100000000005 56.69 148.54300000000003 C 57.372 147.98300000000003 58.019999999999996 147.45300000000003 58.635999999999996 146.94700000000003 C 60.669999999999995 145.29600000000002 62.306999999999995 143.86000000000004 63.800999999999995 142.70600000000002 C 63.163 143.34300000000002 62.522999999999996 143.98100000000002 61.876999999999995 144.62500000000003 C 61.193999999999996 145.33000000000004 60.504999999999995 146.04000000000002 59.812999999999995 146.75500000000002 C 54.269999999999996 152.47100000000003 48.227999999999994 158.48200000000003 41.794999999999995 165.27400000000003 C 40.629999999999995 166.51100000000002 39.446 167.78500000000003 38.254999999999995 169.07800000000003 C 38.682 168.483 39.109 167.89 39.543 167.288 z M 265.611 499.243 C 266.724 499.798 267.837 500.352 268.957 500.912 C 268.254 500.62199999999996 267.58 500.33599999999996 266.919 500.051 C 266.483 499.781 266.046 499.51 265.611 499.243 z M 326.955 533.138 C 324.205 533.736 321.556 533.986 319.157 533.988 C 315.765 533.528 312.349 532.6560000000001 309.082 531.4200000000001 C 308.53499999999997 531.2080000000001 308.001 530.9730000000001 307.46299999999997 530.7450000000001 L 307.912 530.8250000000002 C 308.828 531.0060000000002 309.75199999999995 531.1200000000001 310.678 531.2210000000001 C 311.604 531.3240000000001 312.531 531.4490000000001 313.459 531.5270000000002 C 320.895 532.0980000000002 328.399 531.5560000000002 335.615 530.0190000000001 C 334.779 530.4200000000001 329.619 531.3990000000001 326.46500000000003 531.7580000000002 C 329.627 531.4730000000002 332.735 530.9990000000001 335.785 530.3690000000001 C 332.893 531.541 329.881 532.525 326.955 533.138 z M 476.383 380.478 C 476.37899999999996 380.478 476.37 380.484 476.368 380.483 C 476.455 380.333 476.61899999999997 380.097 476.818 379.824 C 476.675 380.039 476.529 380.258 476.383 380.478 z M 522.985 314.336 C 522.984 314.339 522.9830000000001 314.341 522.982 314.344 C 521.736 316.49 520.51 318.609 519.336 320.651 C 517.875 322.805 516.399 324.98 514.907 327.175 C 515.027 326.942 515.138 326.72200000000004 515.267 326.475 C 517.3910000000001 322.422 520.663 316.577 525.0740000000001 309.303 C 525.3870000000001 308.829 525.566 308.6 525.7020000000001 308.448 C 524.608 310.717 523.645 312.786 522.985 314.336 z M 547.388 250.1 C 544.321 259.741 540.6030000000001 270.377 541.157 270.986 C 539.7760000000001 274.586 538.287 278.131 536.842 281.693 C 535.321 285.217 533.8539999999999 288.764 532.2529999999999 292.239 C 530.564 297.025 529.881 299.11499999999995 529.728 300.207 C 529.7199999999999 300.258 529.717 300.298 529.7109999999999 300.344 C 528.8759999999999 302.001 528.0089999999999 303.73699999999997 527.1689999999999 305.44 C 524.8639999999999 309.292 522.7899999999998 312.65 520.9829999999998 315.467 C 516.1529999999998 323.024 513.2369999999999 326.77 513.0119999999998 326.144 C 504.7099999999998 340.41700000000003 508.39899999999983 334.80400000000003 511.7069999999998 329.869 C 513.3459999999998 327.39000000000004 514.8689999999998 325.06800000000004 514.7519999999998 325.495 C 514.6309999999999 325.919 512.8829999999998 329.1 507.85199999999986 337.544 C 507.24399999999986 338.45599999999996 506.63899999999984 339.363 506.0339999999999 340.272 C 502.5149999999999 345.48 498.95299999999986 350.781 495.35699999999986 356.202 C 494.98199999999986 356.769 494.60499999999985 357.339 494.22899999999987 357.907 C 491.7809999999999 361.541 489.35499999999985 365.11899999999997 486.9519999999999 368.62899999999996 C 485.9129999999999 369.89699999999993 484.8779999999999 371.13499999999993 483.8819999999999 372.30199999999996 C 482.8189999999999 373.549 481.8079999999999 374.715 480.88799999999986 375.758 C 484.82899999999984 369.875 488.29499999999985 364.48199999999997 490.41699999999986 360.96099999999996 C 492.8129999999999 356.97499999999997 493.45999999999987 355.381 490.97299999999984 358.05199999999996 C 484.7359999999998 367.36299999999994 481.83599999999984 372.04499999999996 479.15999999999985 376.229 C 479.04699999999985 376.40299999999996 478.93499999999983 376.577 478.82299999999987 376.75 C 477.18899999999985 378.658 475.39099999999985 380.711 473.4689999999999 382.868 C 468.35199999999986 388.624 462.33299999999986 395.13 456.3359999999999 401.783 C 453.3359999999999 405.10400000000004 450.3479999999999 408.48 447.4749999999999 411.795 C 446.0409999999999 413.481 444.65199999999993 415.081 443.2689999999999 416.769 C 441.8769999999999 418.466 440.53199999999987 420.132 439.3009999999999 421.773 C 434.3149999999999 428.321 430.56599999999986 434.194 428.32999999999987 438.391 C 425.12099999999987 442.672 420.5139999999999 449.283 416.75399999999985 454.286 C 413.0029999999999 459.317 410.06399999999985 462.764 410.59799999999984 461.496 C 409.76399999999984 462.89099999999996 408.32899999999984 464.878 406.47199999999987 467.205 C 405.24399999999986 468.335 403.9949999999999 469.45599999999996 402.6969999999999 470.59799999999996 C 399.68599999999986 473.251 396.7969999999999 475.693 394.2659999999999 477.79299999999995 L 396.7229999999999 475.388 C 393.5239999999999 478.289 390.2839999999999 481.12699999999995 386.9869999999999 483.876 C 385.3719999999999 485.078 384.9659999999999 485.31699999999995 384.9549999999999 485.243 C 382.2419999999999 487.516 378.3669999999999 490.529 373.62999999999994 493.783 C 368.89699999999993 497.041 363.29599999999994 500.53700000000003 357.1689999999999 503.689 C 351.05299999999994 506.85200000000003 344.3999999999999 509.654 337.72399999999993 511.54400000000004 C 334.3859999999999 512.47 331.04999999999995 513.2470000000001 327.78799999999995 513.691 C 324.52899999999994 514.129 321.34599999999995 514.3870000000001 318.3179999999999 514.347 C 318.30099999999993 514.736 324.39399999999995 515.0989999999999 331.98099999999994 513.417 C 335.76399999999995 512.621 339.88699999999994 511.37500000000006 343.7509999999999 509.92400000000004 C 347.6219999999999 508.49600000000004 351.2169999999999 506.819 354.05799999999994 505.48800000000006 C 355.65399999999994 504.88500000000005 361.9099999999999 501.81200000000007 366.3709999999999 499.2610000000001 C 368.6069999999999 498.00700000000006 370.4249999999999 496.97300000000007 371.0679999999999 496.68700000000007 C 371.71399999999994 496.40400000000005 371.2129999999999 496.9290000000001 368.7439999999999 498.66300000000007 C 365.2079999999999 500.89400000000006 361.74299999999994 502.8960000000001 358.3279999999999 504.71200000000005 C 354.9129999999999 506.528 351.55099999999993 508.17500000000007 348.18499999999995 509.58400000000006 C 341.47099999999995 512.4490000000001 334.77799999999996 514.5240000000001 327.8879999999999 515.6210000000001 C 324.4439999999999 516.1370000000001 320.9539999999999 516.4040000000001 317.40899999999993 516.3520000000001 C 316.5249999999999 516.315 315.6359999999999 516.277 314.74099999999993 516.239 C 313.8519999999999 516.15 312.95899999999995 516.061 312.05799999999994 515.971 C 311.15199999999993 515.91 310.26699999999994 515.696 309.35999999999996 515.566 C 308.90199999999993 515.485 308.46599999999995 515.4300000000001 307.984 515.328 C 307.495 515.22 307.00399999999996 515.11 306.51 515 C 304.536 514.559 302.531 514.108 300.486 513.65 C 298.462 513.1039999999999 296.4 512.547 294.294 511.979 C 290.10699999999997 510.748 285.76 509.39799999999997 281.27799999999996 507.712 C 283.17699999999996 508.42199999999997 285.04799999999994 509.228 286.97299999999996 509.86199999999997 L 292.727 511.84499999999997 C 288.41799999999995 510.715 283.578 509.25199999999995 278.414 507.335 C 275.921 505.71299999999997 273.43199999999996 504.10699999999997 270.959 502.561 C 269.982 501.94899999999996 269.009 501.342 268.041 500.74199999999996 C 270.381 501.76699999999994 272.724 502.76699999999994 274.976 503.67099999999994 C 282.091 506.58599999999996 288.287 508.5009999999999 290.079 508.47799999999995 C 283.644 506.04699999999997 277.38 503.16599999999994 271.223 500.10299999999995 C 264.303 497.501 257.356 494.042 250.89600000000002 490.405 C 248.907 489.23699999999997 246.983 488.118 245.137 487.051 C 238.827 483.271 233.144 479.59 228.556 476.679 C 231.204 478.55999999999995 233.887 480.36999999999995 236.578 482.167 C 234.985 481.27 233.488 480.42999999999995 232.127 479.67299999999994 C 225.49900000000002 475.0609999999999 222.76000000000002 472.71299999999997 226.169 473.91599999999994 C 213.738 467.33099999999996 204.09400000000002 461.38199999999995 195.246 455.52699999999993 C 194.62900000000002 455.01399999999995 193.89600000000002 454.4169999999999 193.017 453.71199999999993 C 190.82399999999998 452.3549999999999 188.648 450.9749999999999 186.478 449.58699999999993 C 184.631 448.31199999999995 182.78900000000002 447.0299999999999 180.93800000000002 445.73299999999995 C 174.88400000000001 440.715 177.79100000000003 442.54599999999994 174.687 440.006 C 168.95100000000002 435.15999999999997 169.483 435.878 169.127 435.948 C 168.959 435.97299999999996 168.57500000000002 435.832 167.125 434.69599999999997 C 165.684 433.55199999999996 163.145 431.445 158.806 427.412 C 156.3 424.917 150.815 419.306 153.458 421.522 C 143.71699999999998 412.08299999999997 141.591 409.614 139.362 407.538 C 138.172 406.414 137.02599999999998 405.332 134.93699999999998 403.358 C 132.82699999999997 401.44100000000003 129.79299999999998 398.596 124.70199999999998 394.32800000000003 C 133.683 402.18 137.652 407.29200000000003 137.43699999999998 407.61100000000005 C 137.183 408.02900000000005 132.85299999999998 403.68100000000004 123.54299999999998 395.65100000000007 C 117.04399999999998 389.91300000000007 110.90599999999998 385.01500000000004 105.33499999999998 380.34900000000005 C 99.75599999999999 375.69700000000006 94.71999999999998 371.30400000000003 90.26699999999998 366.862 C 88.04799999999999 364.637 85.95599999999999 362.418 84.02599999999998 360.15700000000004 C 83.01999999999998 359.05400000000003 82.15099999999998 357.87700000000007 81.23699999999998 356.74600000000004 C 80.34699999999998 355.639 79.41499999999998 354.41100000000006 78.49899999999998 353.20000000000005 C 74.85499999999998 348.34700000000004 71.29499999999999 343.684 67.86499999999998 338.93100000000004 C 66.12999999999998 336.97400000000005 64.39499999999998 335.02600000000007 62.66799999999998 333.07700000000006 C 61.51399999999998 331.18800000000005 60.38199999999998 329.3190000000001 59.26599999999998 327.46100000000007 C 65.40199999999997 334.97900000000004 70.79099999999998 341.09800000000007 71.29699999999998 340.69000000000005 C 57.32899999999998 323.20700000000005 63.911999999999985 330.45700000000005 68.79499999999999 335.73400000000004 C 61.10199999999999 326.40200000000004 59.55099999999999 324.86800000000005 58.89099999999999 324.675 C 58.43299999999999 324.531 58.46999999999999 325.125 57.12799999999999 323.884 C 55.07299999999999 320.422 53.07699999999999 316.999 51.14999999999999 313.603 C 45.239999999999995 303.187 39.88699999999999 292.997 35.07299999999999 282.543 C 30.276999999999994 272.089 25.979999999999993 261.368 22.668999999999993 249.895 C 24.167999999999992 257.29200000000003 26.448999999999995 264.65000000000003 28.934999999999995 271.978 L 32.937999999999995 278.669 C 36.37199999999999 287.08 35.47899999999999 286.606 33.080999999999996 282.835 C 32.480999999999995 281.893 31.787999999999997 280.745 31.043999999999997 279.481 C 30.342 278.205 29.608999999999998 276.806 28.865 275.382 C 28.128 273.956 27.360999999999997 272.51 26.679 271.115 C 26.418 270.546 26.165 269.993 25.916999999999998 269.452 C 25.938 269.382 25.953999999999997 269.299 25.962 269.191 C 25.747 268.827 25.264 267.477 24.637 265.60799999999995 C 24.066 263.7289999999999 23.579 261.292 22.979 258.82099999999997 C 22.519 256.332 22.250999999999998 253.76999999999998 21.923 251.63599999999997 C 21.747 249.48299999999998 21.607999999999997 247.73599999999996 21.595 246.88799999999998 C 21.558999999999997 248.49899999999997 21.261 246.90699999999998 21.098 246.92099999999996 C 21.022 246.92999999999995 20.939 247.34299999999996 21.055999999999997 248.77499999999998 C 21.118999999999996 249.48899999999998 21.160999999999998 250.46399999999997 21.336999999999996 251.75499999999997 C 21.557999999999996 253.03799999999995 21.833999999999996 254.64699999999996 22.179999999999996 256.657 C 21.997999999999998 256.174 21.768999999999995 255.21499999999997 21.501999999999995 253.909 C 21.374999999999996 253.254 21.230999999999995 252.51399999999998 21.073999999999995 251.70499999999998 C 20.938999999999993 250.892 20.875999999999994 249.99599999999998 20.767999999999994 249.052 C 20.391999999999992 245.268 20.306999999999995 240.606 20.721999999999994 236.161 C 21.426999999999992 227.235 24.413999999999994 219.389 23.909999999999993 219.7 C 24.639999999999993 219.054 27.433999999999994 210.75099999999998 33.47599999999999 201.528 C 39.31899999999999 192.233 48.278999999999996 182.153 54.81499999999999 175.632 C 53.37999999999999 175.5 47.51999999999999 181.823 42.06399999999999 188.886 C 39.327999999999996 192.415 36.71999999999999 196.137 34.614999999999995 199.268 C 32.504 202.397 30.828999999999994 204.915 29.701999999999995 205.974 C 32.379999999999995 200.77599999999998 36.791999999999994 194.113 42.80199999999999 186.897 C 48.78399999999999 179.659 56.33099999999999 171.881 64.411 163.748 C 66.435 161.703 68.48 159.637 70.537 157.558 C 72.644 155.409 74.55600000000001 153.487 76.59700000000001 151.581 C 80.671 147.791 85.034 144.321 89.57700000000001 141.301 C 98.65400000000001 135.232 108.471 131.093 117.63300000000001 128.887 C 119.64200000000001 128.544 121.39000000000001 128.181 122.93800000000002 128.035 C 123.17000000000002 128.006 123.38800000000002 127.979 123.61100000000002 127.952 C 123.70900000000002 127.956 123.80200000000002 127.961 123.90100000000002 127.966 C 124.25400000000002 127.982 124.60900000000002 127.99799999999999 124.96800000000002 128.01399999999998 C 125.32500000000002 128.052 125.68600000000002 128.08899999999997 126.05100000000002 128.128 C 126.65000000000002 128.189 127.26900000000002 128.25199999999998 127.89300000000001 128.31599999999997 C 127.86900000000001 128.31999999999996 127.84600000000002 128.32399999999998 127.82200000000002 128.32799999999997 C 126.83400000000002 128.50099999999998 125.84600000000002 128.63599999999997 125.07100000000001 128.82899999999998 C 123.52000000000001 129.21399999999997 122.79 129.50199999999998 124.43500000000002 129.48799999999997 C 120.78400000000002 129.94899999999998 117.54200000000002 130.75999999999996 114.56700000000002 131.49099999999999 C 113.09900000000002 131.94099999999997 111.67900000000002 132.313 110.34100000000002 132.767 C 109.01200000000003 133.25 107.70800000000003 133.626 106.49700000000003 134.135 C 101.60700000000003 136.02499999999998 97.53600000000003 137.999 93.73400000000002 140.221 C 89.93700000000003 142.45000000000002 86.36900000000003 144.862 82.59700000000002 147.871 C 81.66900000000003 148.645 80.71700000000003 149.43900000000002 79.73300000000002 150.26000000000002 C 78.78300000000002 151.12500000000003 77.80200000000002 152.019 76.78300000000002 152.948 C 75.80200000000002 153.922 74.78400000000002 154.93200000000002 73.72200000000001 155.987 C 72.61000000000001 157.138 71.45200000000001 158.337 70.24100000000001 159.591 C 70.92400000000002 158.917 71.62100000000001 158.23000000000002 72.33100000000002 157.53 C 73.04300000000002 156.824 73.76900000000002 156.101 74.44900000000001 155.463 C 75.141 154.799 75.84500000000001 154.125 76.55900000000001 153.44 C 77.281 152.766 78.04200000000002 152.12 78.79500000000002 151.44299999999998 C 81.83300000000001 148.772 85.14500000000001 146.124 88.73300000000002 143.71699999999998 C 92.30900000000001 141.29399999999998 96.10900000000002 139.023 100.09100000000002 137.09199999999998 C 104.07500000000002 135.17 108.21500000000002 133.546 112.39700000000002 132.28099999999998 C 119.39700000000002 130.11299999999997 126.51100000000002 129.134 133.11200000000002 128.93699999999998 C 139.09700000000004 129.80599999999998 146.32000000000002 131.188 155.485 134.32699999999997 L 152.08900000000003 132.83299999999997 C 150.95900000000003 132.31599999999997 149.78000000000003 131.95099999999996 148.62400000000002 131.49899999999997 C 156.79900000000004 133.47499999999997 162.205 135.59899999999996 166.37100000000004 137.56599999999997 C 168.45200000000003 138.56399999999996 170.28700000000003 139.40299999999996 171.92700000000005 140.41499999999996 C 173.57900000000004 141.40099999999995 175.18100000000004 142.25999999999996 176.77300000000005 143.32699999999997 C 178.36100000000005 144.39299999999997 180.02400000000006 145.50899999999996 181.92200000000005 146.78199999999998 C 182.84400000000005 147.45799999999997 183.82300000000006 148.176 184.87800000000004 148.94899999999998 C 185.92700000000005 149.72899999999998 187.09900000000005 150.49099999999999 188.27100000000004 151.46999999999997 C 189.46800000000005 152.40799999999996 190.75800000000004 153.41899999999998 192.15900000000005 154.51799999999997 C 193.55100000000004 155.62899999999996 194.98600000000005 156.92499999999998 196.59400000000005 158.26299999999998 C 196.99400000000006 158.59999999999997 197.40300000000005 158.944 197.81900000000005 159.295 C 198.28100000000003 159.694 198.75300000000004 160.10199999999998 199.23400000000004 160.517 C 200.21600000000004 161.378 201.23700000000002 162.245 202.30100000000004 163.12199999999999 C 204.43000000000004 164.902 206.72100000000003 166.72299999999998 209.19300000000004 168.66699999999997 C 214.76600000000005 172.97999999999996 219.76200000000003 176.75599999999997 223.99100000000004 180.08499999999998 C 228.18600000000004 183.38199999999998 231.66500000000005 186.22099999999998 234.35200000000003 188.503 C 235.03900000000004 189.349 235.69900000000004 190.18599999999998 236.28800000000004 190.974 C 238.50500000000005 193.88 239.89300000000003 196.035 238.94000000000003 195.179 L 237.32800000000003 193.2 C 240.97600000000003 197.68699999999998 243.54000000000002 201.459 245.43000000000004 204.64999999999998 C 243.32100000000003 207.367 241.22000000000003 210.24399999999997 239.13800000000003 213.21699999999998 L 237.45100000000002 215.80499999999998 C 236.88400000000001 216.66199999999998 236.32100000000003 217.53099999999998 235.79700000000003 218.47199999999998 L 234.19400000000002 221.23999999999998 C 233.68400000000003 222.20199999999997 233.203 223.21099999999998 232.71 224.19799999999998 L 231.977 225.688 L 231.33100000000002 227.291 C 230.91400000000002 228.374 230.459 229.413 230.08900000000003 230.539 L 229.09500000000003 234.01999999999998 C 228.73700000000002 235.19099999999997 228.598 236.32199999999997 228.35100000000003 237.47799999999998 C 227.98300000000003 239.85999999999999 227.71400000000003 242.343 227.81000000000003 245.10999999999999 C 227.95000000000002 247.88899999999998 228.38600000000002 250.99399999999997 229.94900000000004 254.39399999999998 C 230.80300000000005 256.104 231.85800000000003 257.839 233.45500000000004 259.424 C 233.63000000000005 259.60699999999997 233.64400000000003 259.59799999999996 233.83200000000005 259.774 C 233.83900000000006 259.831 233.78400000000005 260.11 233.79300000000006 260.174 C 234.03400000000008 260.68399999999997 234.25300000000007 261.82099999999997 234.33500000000006 261.799 C 234.25300000000007 261.541 234.39100000000008 260.44 234.32600000000008 260.236 C 234.42100000000008 260.32 234.50500000000008 260.411 234.6020000000001 260.493 C 234.6260000000001 260.781 234.6860000000001 261.17 234.61800000000008 261.156 C 234.72500000000008 261.48900000000003 234.7740000000001 261.641 234.91400000000007 262.077 C 235.07700000000008 262.532 235.32900000000006 263.098 235.58400000000006 263.678 C 235.72400000000005 263.977 235.83700000000005 264.262 236.02300000000005 264.604 C 236.22700000000006 264.959 236.69100000000006 265.71 236.69500000000005 265.716 L 236.96600000000004 266.136 C 237.11300000000003 266.365 237.26800000000003 266.59700000000004 237.48400000000004 266.857 C 237.83700000000005 267.28000000000003 238.21800000000005 267.70700000000005 238.62700000000004 268.12800000000004 C 238.99900000000005 268.545 239.54000000000005 268.97300000000007 240.10600000000005 269.38100000000003 C 240.68000000000006 269.78200000000004 241.23700000000005 270.196 241.94300000000004 270.497 C 242.62300000000005 270.80400000000003 243.35800000000003 271.127 244.08700000000005 271.317 C 244.81300000000005 271.492 245.57300000000004 271.63 246.34300000000005 271.724 C 249.32400000000004 271.93899999999996 251.74000000000004 271.205 253.73800000000006 270.359 C 255.76100000000005 269.486 257.41900000000004 268.414 258.94800000000004 267.25199999999995 C 260.494 266.08799999999997 261.90400000000005 264.82499999999993 263.232 263.47099999999995 C 265.908 260.76599999999996 268.30100000000004 257.73699999999997 270.449 254.32299999999995 C 271.188 253.14899999999994 271.89 251.92499999999995 272.547 250.62999999999994 C 274.139 248.84799999999993 275.70700000000005 246.90899999999993 277.14700000000005 244.68499999999995 C 277.564 244.05399999999995 277.97300000000007 243.32499999999993 278.35300000000007 242.66399999999996 C 278.66600000000005 242.02599999999995 278.9750000000001 241.39499999999995 279.2800000000001 240.77399999999997 C 279.8680000000001 239.51599999999996 280.5220000000001 238.34899999999996 280.9220000000001 237.09199999999998 C 281.3660000000001 235.86299999999997 281.79800000000006 234.696 282.1660000000001 233.59099999999998 C 282.4490000000001 232.45 282.7120000000001 231.39199999999997 282.9490000000001 230.43699999999998 C 283.06400000000014 229.957 283.1730000000001 229.503 283.27500000000015 229.07799999999997 C 283.34000000000015 228.64399999999998 283.4010000000001 228.23999999999998 283.45800000000014 227.86799999999997 C 283.57800000000015 227.12099999999995 283.67800000000017 226.50099999999998 283.75400000000013 226.02999999999997 C 284.07300000000015 224.14499999999998 284.25400000000013 224.63499999999996 284.0070000000001 228.99099999999999 C 284.68400000000014 224.105 284.4370000000001 217.968 282.7760000000001 211.96699999999998 C 282.2520000000001 210.005 281.57800000000015 208.076 280.8080000000001 206.189 C 280.8480000000001 206.12699999999998 280.8880000000001 206.07 280.92700000000013 206.00799999999998 C 281.50300000000016 205.094 282.07800000000015 204.182 282.65000000000015 203.27399999999997 C 283.74800000000016 201.54299999999998 284.79600000000016 199.79499999999996 285.91400000000016 198.12699999999998 C 290.26500000000016 191.37199999999999 294.6610000000002 185.17399999999998 298.44100000000014 180.08899999999997 C 296.4660000000001 182.17299999999997 295.1340000000001 183.51499999999996 294.41600000000017 184.03299999999996 C 293.69500000000016 184.54799999999994 293.59000000000015 184.24099999999996 294.1410000000002 183.07799999999995 C 295.2530000000002 180.76499999999996 298.9840000000002 175.01699999999994 306.2200000000002 166.08499999999995 C 305.3330000000002 167.64999999999995 310.4690000000002 161.84999999999994 317.6480000000002 154.67899999999995 C 324.7980000000002 147.47799999999995 334.1310000000002 139.07499999999993 340.32700000000017 134.19399999999996 C 337.5570000000002 136.96599999999995 344.4970000000002 131.52999999999997 349.12600000000015 128.36699999999996 C 351.42200000000014 126.75899999999996 353.13800000000015 125.71199999999996 352.60100000000017 126.27599999999997 C 352.0740000000002 126.85299999999997 349.29200000000014 129.04499999999996 342.9680000000002 134.39799999999997 C 339.1600000000002 137.33799999999997 336.3420000000002 139.45499999999996 333.2370000000002 141.92299999999997 C 331.7070000000002 143.18399999999997 330.0940000000002 144.521 328.2990000000002 146.146 C 326.5390000000002 147.808 324.51900000000023 149.677 322.2620000000002 152.08599999999998 C 325.30500000000023 149.522 330.75200000000024 144.70499999999998 337.7460000000002 139.06199999999998 C 344.7270000000002 133.40499999999997 353.2770000000002 126.95099999999998 362.3090000000002 120.92199999999998 C 361.7430000000002 121.56799999999998 359.1860000000002 123.58099999999999 355.7280000000002 126.38399999999999 C 352.27200000000016 129.19 347.8810000000002 132.742 343.5880000000002 136.39499999999998 C 348.1000000000002 132.212 345.2400000000002 134.34599999999998 344.39900000000017 134.701 C 336.8430000000002 141.266 333.76300000000015 144.524 333.02700000000016 145.44299999999998 C 332.30600000000015 146.38099999999997 333.99600000000015 145.065 336.49200000000013 143.07099999999997 C 341.48200000000014 139.06599999999997 349.93800000000016 132.68599999999998 347.91400000000016 134.88199999999998 C 351.94400000000013 131.43899999999996 358.5090000000002 126.37499999999997 363.06500000000017 123.07699999999997 C 367.6340000000002 119.80199999999996 370.03900000000016 118.04199999999997 365.46500000000015 120.79699999999997 C 369.91400000000016 118.12199999999997 375.4970000000001 114.76499999999997 381.6750000000001 111.05099999999997 C 387.8610000000001 107.38899999999997 394.7400000000001 103.56899999999997 401.83000000000015 100.06399999999998 C 408.92200000000014 96.56899999999997 416.22200000000015 93.37799999999999 423.1630000000001 90.94099999999997 C 430.1040000000001 88.51299999999998 436.6340000000001 86.69399999999997 442.08800000000014 85.71099999999997 C 442.53000000000014 85.51099999999997 439.61400000000015 86.07799999999997 438.42400000000015 86.16899999999997 C 437.8290000000001 86.21399999999997 437.66600000000017 86.14099999999996 438.57800000000015 85.79299999999996 C 439.03400000000016 85.61899999999996 439.7590000000001 85.37599999999996 440.83300000000014 85.04399999999997 C 441.9060000000001 84.70899999999997 443.32700000000017 84.27599999999997 445.19800000000015 83.83599999999997 C 446.60000000000014 83.51899999999998 447.90900000000016 83.22299999999997 449.1320000000002 82.94699999999997 C 450.3570000000002 82.67699999999998 451.50800000000015 82.49699999999997 452.5740000000002 82.29399999999997 C 454.7110000000002 81.90999999999997 456.5570000000002 81.55299999999997 458.0710000000002 81.43699999999997 C 459.6090000000002 81.28199999999997 460.9120000000002 81.15099999999997 462.0470000000002 81.03699999999996 C 463.1820000000002 80.92999999999996 464.1480000000002 80.84099999999997 465.0200000000002 80.88299999999997 C 466.7590000000002 80.90399999999997 468.0890000000002 80.95699999999997 469.5400000000002 80.99599999999997 C 470.2660000000002 81.02899999999997 471.0200000000002 80.99699999999997 471.8730000000002 81.06699999999996 C 472.7260000000002 81.14099999999996 473.67500000000024 81.21299999999997 474.78600000000023 81.27799999999996 C 478.02300000000025 80.88799999999996 487.99200000000025 81.50699999999996 496.53600000000023 83.48499999999996 C 497.6040000000002 83.72799999999995 498.65300000000025 83.96599999999995 499.6690000000002 84.19699999999996 C 500.6900000000002 84.41399999999996 501.6370000000002 84.77599999999995 502.5580000000002 85.03799999999995 C 504.3870000000002 85.60899999999995 506.0370000000002 86.08799999999995 507.3560000000002 86.53499999999995 C 509.9520000000002 87.55499999999995 511.3280000000002 88.11499999999995 510.5490000000002 87.87399999999995 C 512.2730000000003 88.49899999999995 513.3580000000002 88.83799999999995 513.9540000000002 89.01199999999996 C 514.5410000000002 89.20899999999996 514.6660000000002 89.17599999999996 514.4950000000002 88.99399999999996 C 514.1720000000003 88.58599999999996 512.5760000000002 87.79199999999996 511.1690000000002 86.98599999999996 C 509.7580000000002 86.19399999999996 508.5080000000002 85.45199999999996 508.8380000000002 85.34499999999996 C 509.0040000000002 85.29199999999996 509.56500000000017 85.39699999999996 510.7010000000002 85.73399999999995 C 511.2700000000002 85.90199999999996 511.9830000000002 86.12899999999995 512.8630000000002 86.42099999999995 C 513.7440000000001 86.71199999999995 514.7990000000002 87.04999999999995 515.9880000000002 87.59999999999995 C 517.6480000000001 88.23099999999995 519.3750000000001 88.92499999999995 521.1540000000002 89.66799999999995 C 522.8920000000003 90.49299999999995 524.6490000000002 91.43799999999995 526.4610000000002 92.38399999999994 C 526.9130000000002 92.62399999999994 527.3670000000002 92.86499999999994 527.8240000000003 93.10799999999995 C 528.2720000000003 93.36699999999995 528.7070000000003 93.65399999999995 529.1520000000003 93.92899999999995 C 529.3630000000003 94.06199999999994 529.5780000000003 94.19899999999994 529.7910000000003 94.33199999999995 C 531.6870000000002 96.16499999999995 534.3760000000003 98.49599999999995 537.9330000000003 100.97899999999996 C 537.9360000000004 100.98099999999995 537.9380000000003 100.98299999999996 537.9400000000003 100.98399999999995 C 536.5980000000003 100.04099999999995 535.4660000000002 99.25499999999995 534.6760000000003 98.72799999999995 C 537.8960000000003 100.94199999999995 541.0060000000003 103.32399999999996 543.9940000000003 105.85399999999996 C 550.1670000000003 111.38799999999996 555.8320000000002 118.04199999999996 557.0070000000003 120.57399999999996 C 557.4120000000003 121.44799999999995 557.6990000000003 122.13399999999996 558.0180000000003 122.84999999999995 C 553.0900000000003 116.62899999999995 547.8570000000003 111.31399999999995 542.5080000000003 106.74899999999995 C 534.8620000000003 100.25599999999996 526.8940000000002 95.28899999999996 518.6310000000003 91.79799999999994 C 525.6900000000003 95.53799999999994 533.3030000000003 100.42699999999995 540.4050000000003 106.35799999999995 C 547.5210000000003 112.26399999999995 554.0990000000003 119.18399999999994 559.4630000000003 126.31199999999995 C 559.9430000000003 126.97499999999995 560.4320000000004 127.62399999999995 560.9160000000003 128.27199999999996 C 561.8760000000003 129.87399999999997 563.1560000000003 131.92499999999995 564.9510000000002 134.70499999999996 C 565.4980000000003 136.31999999999996 566.0140000000002 137.97899999999996 566.4630000000002 139.73099999999997 C 568.4330000000002 147.18899999999996 569.4670000000002 155.95699999999997 568.8610000000002 166.40199999999996 C 568.7440000000003 165.54799999999994 568.7710000000002 160.44099999999995 568.5550000000002 157.88799999999995 C 569.0260000000002 167.63899999999995 567.8030000000002 176.03099999999995 566.4120000000001 183.46199999999996 C 564.9860000000001 190.90999999999997 563.3390000000002 197.46199999999996 562.0590000000002 203.92399999999995 C 559.4550000000002 213.27799999999996 558.7380000000002 214.02899999999994 557.8130000000002 216.06299999999996 C 556.8580000000002 218.11599999999996 555.5820000000002 221.35499999999996 551.1400000000002 235.99499999999995 C 553.086 231.893 550.47 240.485 547.388 250.1 z M 555.684 256.435 C 556.454 253.992 557.199 251.534 557.9499999999999 249.08 C 558.3779999999999 249.01700000000002 560.223 246.066 561.6659999999999 243.857 C 559.753 248.081 557.752 252.271 555.684 256.435 z M 575.679 183.702 L 575.5889999999999 186.403 L 575.3169999999999 189.096 C 575.1349999999999 190.894 574.9539999999998 192.695 574.7699999999999 194.508 C 574.4739999999998 196.31 574.1759999999998 198.12400000000002 573.8749999999999 199.95700000000002 C 573.7229999999998 200.87400000000002 573.5679999999999 201.79600000000002 573.4139999999999 202.72400000000002 C 573.2069999999999 203.644 572.9999999999999 204.56900000000002 572.7899999999998 205.501 C 572.3599999999999 207.365 571.9239999999999 209.256 571.4799999999999 211.181 C 569.4229999999999 218.83100000000002 566.7209999999999 226.936 562.9999999999999 235.872 C 561.2149999999999 240.199 559.9689999999999 243.221 559.1249999999999 245.26700000000002 C 560.4109999999998 241.02100000000002 561.6839999999999 236.77000000000004 562.9579999999999 232.526 C 565.3849999999999 224.471 567.8119999999999 216.365 569.9879999999998 208.151 C 572.1469999999998 199.93300000000002 574.0579999999999 191.603 575.3709999999999 183.13 C 575.5229999999999 182.18099999999998 575.6619999999999 181.22899999999998 575.7939999999999 180.27599999999998 C 575.756 181.419 575.717 182.565 575.679 183.702 z" stroke-linecap="round" />
</g>
<g transform="matrix(0.99 -0.1 0.1 0.99 1158.06 253.92)" style="filter: url(#SVGID_1);" id="iHH3OXpg3tNzJDw2IOOjb"  >
<filter id="SVGID_1" y="-23%" height="146%" x="-20%" width="140%" >
	<feGaussianBlur in="SourceAlpha" stdDeviation="0"></feGaussianBlur>
	<feOffset dx="3.56" dy="4.4" result="oBlur" ></feOffset>
	<feFlood flood-color="rgb(0,0,0)" flood-opacity="1"/>
	<feComposite in2="oBlur" operator="in" />
	<feMerge>
		<feMergeNode></feMergeNode>
		<feMergeNode in="SourceGraphic"></feMergeNode>
	</feMerge>
</filter>
		<text xml:space="preserve" font-family="Quicksand" font-size="125" font-style="normal" font-weight="500" letter-spacing="2.5" line-height="1" style="stroke: rgb(244,39,157); stroke-width: 2; stroke-dasharray: none; stroke-linecap: butt; stroke-dashoffset: 0; stroke-linejoin: miter; stroke-miterlimit: 4; fill: rgb(255,255,255); fill-opacity: 0.11; fill-rule: nonzero; opacity: 0.63; white-space: pre;" ><tspan x="-436.44" y="42.95" >d</tspan><tspan x="-357.2" y="42.95" >e</tspan><tspan x="-283.69" y="42.95" >v</tspan><tspan x="-214.32" y="42.95" >e</tspan><tspan x="-140.19" y="42.95" >l</tspan><tspan x="-108.57" y="42.95" >o</tspan><tspan x="-29.69" y="42.95" >p</tspan><tspan x="49.56" y="42.95" >e</tspan><tspan x="123.68" y="42.95" >r</tspan></text>
</g>
<g transform="matrix(1 0 0 1 916.67 118.06)" style="filter: url(#SVGID_2);" id="s5YBXcCCmtSlk9v4JxX3B"  >
<filter id="SVGID_2" y="-23%" height="146%" x="-20%" width="140%" >
	<feGaussianBlur in="SourceAlpha" stdDeviation="0"></feGaussianBlur>
	<feOffset dx="4" dy="4" result="oBlur" ></feOffset>
	<feFlood flood-color="rgb(0,0,0)" flood-opacity="1"/>
	<feComposite in2="oBlur" operator="in" />
	<feMerge>
		<feMergeNode></feMergeNode>
		<feMergeNode in="SourceGraphic"></feMergeNode>
	</feMerge>
</filter>
		<text xml:space="preserve" font-family="Quicksand" font-size="145" font-style="normal" font-weight="700" letter-spacing="2.9" line-height="1" style="stroke: none; stroke-width: 1; stroke-dasharray: none; stroke-linecap: butt; stroke-dashoffset: 0; stroke-linejoin: miter; stroke-miterlimit: 4; fill: rgb(244,39,157); fill-rule: nonzero; opacity: 1; white-space: pre;" ><tspan x="-448.32" y="60.53" >a</tspan><tspan x="-354.36" y="60.53" >y</tspan><tspan x="-266.34" y="60.53" >a</tspan><tspan x="-172.38" y="60.53" >n</tspan><tspan x="-83.06" y="60.53" >e</tspan><tspan x="5.39" y="60.53" >e</tspan><tspan x="93.84" y="60.53" >c</tspan><tspan x="172.14" y="60.53" >h</tspan><tspan x="260.01" y="60.53" >a</tspan><tspan x="353.97" y="60.53" >n</tspan></text>
</g>
</svg>